Storyline

Bobbie is an addict and small-time thief. When one of his jobs goes bad, Mel is called in to patch him up. Mel offers him a chance at a bigger score. Over time, Mel and his girlfriend Sid become almost like parents to Bobbie and his girlfriend Rosie, but this can't last. 


Format                                   : MPEG-4
Format profile                           : Base Media / Version 2
Codec ID                                 : mp42
File size                                : 2.08 GiB
Duration                                 : 1h 45mn
Overall bit rate mode                    : Variable
Overall bit rate                         : 2 825 Kbps
Encoded date                             : UTC 2013-05-02 02:59:52
Tagged date                              : UTC 2013-05-02 03:23:16
Writing application                      : HandBrake 0.9.8 2012071700

Video
ID                                       : 1
Format                                   : AVC
Format/Info                              : Advanced Video Codec
Format profile                           : Main@L3.0
Format settings, CABAC                   : Yes
Format settings, ReFrames                : 4 frames
Codec ID                                 : avc1
Codec ID/Info                            : Advanced Video Coding
Duration                                 : 1h 45mn
Bit rate mode                            : Variable
Bit rate                                 : 2 500 Kbps
Width                                    : 720 pixels
Height                                   : 384 pixels
Display aspect ratio                     : 1.644
Frame rate mode                          : Variable
Frame rate                               : 23.976 fps
Minimum frame rate                       : 23.974 fps
Maximum frame rate                       : 23.981 fps
Color space                              : YUV
Chroma subsampling                       : 4:2:0
Bit depth                                : 8 bits
Scan type                                : Progressive
Bits/(Pixel*Frame)                       : 0.377
Stream size                              : 1.84 GiB (88%)
Writing library                          : x264 core 120
Encoding settings                        : cabac=1 / ref=1 / deblock=1:0:0 / 
Encoded date                             : UTC 2013-05-02 02:59:52
Tagged date                              : UTC 2013-05-02 03:22:57
Color primaries                          : BT.601 NTSC
Transfer characteristics                 : BT.709
Matrix coefficients                      : BT.601

Audio #1
ID                                       : 2
Format                                   : AAC
Format/Info                              : Advanced Audio Codec
Format profile                           : LC
Codec ID                                 : 40
Duration                                 : 1h 45mn
Bit rate mode                            : Variable
Bit rate                                 : 160 Kbps
Maximum bit rate                         : 336 Kbps
Channel(s)                               : 2 channels
Channel positions                        : Front: L R
Sampling rate                            : 48.0 KHz
Compression mode                         : Lossy
Delay relative to video                  : 83ms
Stream size                              : 120 MiB (6%)
Language                                 : English
Encoded date                             : UTC 2013-05-02 02:59:52
Tagged date                              : UTC 2013-05-02 03:22:57



RUNTIME: 1 Hour 45 Minutes 11 Seconds


Widescreen 1.85.1